<?xml version="1.0" encoding="UTF-8"?>
<svg version="1.1" xmlns="http://www.w3.org/2000/svg" width="2000" height="2000">
<path d="M0 0 C660 0 1320 0 2000 0 C2000 660 2000 1320 2000 2000 C1340 2000 680 2000 0 2000 C0 1340 0 680 0 0 Z " fill="#000000" transform="translate(0,0)"/>
<path d="M0 0 C15.1860629 -0.05240667 30.35824658 0.02237414 45.54034805 0.37367058 C65.58629043 0.83366354 85.63373046 1.16201247 105.68294191 1.43643904 C107.76443304 1.46493438 109.84592187 1.49359226 111.92741013 1.52229691 C117.60492738 1.60055709 123.28244779 1.6785837 128.95997429 1.75617027 C172.94907008 2.3579187 216.93857206 2.97150719 260.92134857 3.94118118 C263.57417753 3.99889434 266.2270469 4.05412285 268.87994385 4.10861206 C289.97202734 4.54579437 310.95798858 5.46110155 332 7 C335.20599041 7.22397547 338.4120484 7.44692979 341.61817932 7.66888428 C360.23836385 9.06103605 383.08450569 12.45981986 397 26 C397.93199219 26.89138672 397.93199219 26.89138672 398.8828125 27.80078125 C413.37559178 42.95232322 416.05459088 66.41199655 416.6171875 86.453125 C416.65472137 87.64222473 416.69225525 88.83132446 416.73092651 90.05645752 C417.17480853 105.76739589 417.15415713 121.48391977 417.12877274 137.19978333 C417.12494605 139.786469 417.12291699 142.37315093 417.12130737 144.95983887 C417.10486608 167.39290993 416.97249444 189.820333 416.5625 212.25 C416.5429425 213.3366394 416.52338501 214.42327881 416.50323486 215.54284668 C416.20170175 231.70291413 415.64166108 247.85013152 415 264 C393.74102316 264.08591622 372.49344376 263.8500583 351.23736572 263.53643799 C347.01894187 263.47464133 342.80048518 263.41517081 338.58203125 263.35546875 C330.38798819 263.23917685 322.19398323 263.12043426 314 263 C314.0870005 264.62600941 314.1951781 266.25089678 314.3125 267.875 C314.37050781 268.77992188 314.42851563 269.68484375 314.48828125 270.6171875 C314.7882039 273.36221601 314.7882039 273.36221601 318 275 C320.77196354 275.31185797 323.44825532 275.49308158 326.23046875 275.58984375 C327.12855759 275.62665756 328.02664642 275.66347137 328.95195007 275.70140076 C344.51614095 276.27326504 360.10015903 276.35649165 375.67266846 276.53222656 C380.11840084 276.58320997 384.56407984 276.63848741 389.00976562 276.69335938 C397.67313146 276.79967833 406.33654308 276.90138246 415 277 C415.10147675 293.993452 415.11906815 310.97061936 414.5625 327.95703125 C414.04805302 343.78558049 413.75444169 359.6144694 413.5 375.44921875 C413.47946564 376.71110142 413.45893127 377.97298409 413.43777466 379.27310562 C413.25637957 390.42096946 413.07941725 401.56890236 412.90624237 412.71689683 C412.79426072 419.92449276 412.67885268 427.13202633 412.56030273 434.33951759 C412.52063271 436.79638262 412.48234538 439.25327042 412.44555664 441.71018028 C412.25393856 454.50072134 411.99142764 467.24296424 411 480 C402.48710091 480.02356323 393.97421629 480.04113216 385.46129227 480.05181217 C381.50494454 480.05694773 377.54861971 480.06386665 373.59228516 480.07543945 C357.34838082 480.12165905 341.14391931 480.06307879 324.91087341 479.3888092 C314.82279854 478.98648624 304.73914071 478.83092867 294.64453125 478.71875 C293.79886219 478.70919722 292.95319313 478.69964443 292.08189774 478.68980217 C285.111154 478.61206666 278.14033186 478.54267566 271.16949463 478.47393799 C265.09862594 478.41376928 259.02780568 478.35030985 252.95703125 478.28125 C252.12699711 478.27186401 251.29696297 478.26247803 250.44177628 478.25280762 C236.61503312 478.09029829 222.81148389 477.69643484 209 477 C208.76878286 409.30266257 210.3323867 341.67305848 212 274 C207.38 274 202.76 274 198 274 C198.00523682 275.92150879 198.01047363 277.84301758 198.01586914 279.82275391 C198.17679487 344.5676041 198.17679487 344.5676041 197.49490356 364.68139648 C197.0953047 376.53515964 196.89351837 388.38693767 196.74609375 400.24609375 C196.73573153 401.07259367 196.7253693 401.89909359 196.71469307 402.75063896 C196.61963014 410.37279039 196.52779156 417.99497459 196.4458313 425.61727905 C196.26134168 442.76505185 196.05687305 459.8787161 195 477 C180.62480528 477.0560881 166.25955252 476.88336178 151.88671875 476.6328125 C149.56854332 476.59335474 147.25036703 476.55394764 144.93218994 476.5145874 C138.78256628 476.40940115 132.63299559 476.30139387 126.4834404 476.19228363 C122.67753628 476.12482339 118.87162098 476.05802195 115.06570435 475.99127197 C74.36774874 475.27426726 33.68228502 474.33963881 -7 473 C-7.02363212 463.20831613 -7.04116467 453.41664272 -7.05181217 443.6249361 C-7.05693374 439.07359593 -7.06382385 434.52227586 -7.07543945 429.97094727 C-7.0866654 425.5423025 -7.09235635 421.11367648 -7.09487724 416.68501854 C-7.09666287 415.03257134 -7.10013754 413.38012463 -7.10573006 411.72768593 C-7.14464226 399.70167535 -6.87883486 387.6909905 -6.53442383 375.67089844 C-5.99193474 356.73718363 -5.66675919 337.80392429 -5.39134812 318.86466289 C-5.32223333 314.15287603 -5.25025181 309.44113288 -5.17851257 304.72938538 C-5.05575728 296.65090454 -4.9341605 288.57240715 -4.81338501 280.49389648 C-4.49339369 259.10910314 -4.16422552 237.72445069 -3.83203125 216.33984375 C-3.81520066 215.25535682 -3.79837007 214.17086989 -3.78102946 213.05351973 C-3.04042535 165.36749204 -2.19775747 117.68354035 -1.3125 70 C-1.27878975 68.18263119 -1.24508054 66.36526237 -1.21137238 64.54789352 C-0.81214019 43.03184272 -0.4087851 21.51587151 0 0 Z " fill="#27D433" transform="translate(705,757)"/>
<path d="M0 0 C1.31405319 -0.00409882 2.62810638 -0.00819763 3.98197937 -0.01242065 C7.68262253 -0.02193911 11.38322045 -0.02276434 15.08387375 -0.02070999 C17.47918588 -0.01951828 19.87449364 -0.02007081 22.26980591 -0.02072144 C60.74842681 -0.01852281 99.22347991 0.54212822 137.69765663 1.07189894 C140.12881351 1.10530644 142.55997353 1.13847577 144.99113464 1.17157364 C207.74451685 2.02675989 207.74451685 2.02675989 233.8984375 2.68359375 C234.66417524 2.70224424 235.42991299 2.72089474 236.2188549 2.7401104 C288.36789604 4.03724892 288.36789604 4.03724892 305.51953125 20.8046875 C322.52077402 39.20495919 321.89419886 67.9959059 321.80078125 91.53515625 C321.79890954 92.95004221 321.79748921 94.36492883 321.79649353 95.77981567 C321.79272751 99.45230998 321.78294996 103.12476293 321.77178955 106.79724121 C321.76144606 110.56534262 321.75696858 114.3334509 321.75195312 118.1015625 C321.74132055 125.45704984 321.72431801 132.81250344 321.703125 140.16796875 C150.03828865 138.35335613 150.03828865 138.35335613 104.703125 136.16796875 C104.70836182 137.10213623 104.71359863 138.03630371 104.71899414 138.9987793 C104.82640391 160.29204445 104.64960782 181.56648642 104.203125 202.85546875 C103.87151022 218.83516482 103.59591066 234.80952076 103.578125 250.79296875 C103.57562744 251.57481537 103.57312988 252.35666199 103.57055664 253.16220093 C103.56477695 255.32302559 103.56607009 257.48370583 103.5703125 259.64453125 C103.57200439 261.44011475 103.57200439 261.44011475 103.57373047 263.27197266 C103.57386554 266.23613571 103.57386554 266.23613571 104.703125 269.16796875 C108.663125 269.82796875 112.623125 270.48796875 116.703125 271.16796875 C116.69788818 269.38559814 116.69265137 267.60322754 116.68725586 265.7668457 C116.66471986 257.33806057 116.65002271 248.90927796 116.640625 240.48046875 C116.63934097 239.33704262 116.63934097 239.33704262 116.63803101 238.17051697 C116.60895526 208.82514136 116.99986438 179.50564178 117.703125 150.16796875 C137.96687103 150.02820475 158.22315999 150.42703775 178.48295736 150.77375603 C183.49700833 150.8591687 188.5110945 150.94246406 193.525177 151.02600098 C202.9840743 151.18390367 212.44293928 151.34366186 221.9017936 151.50411654 C232.68562921 151.68695484 243.46949994 151.8676792 254.25337386 152.04824162 C276.40333027 152.41916137 298.55324212 152.79268502 320.703125 153.16796875 C320.74564586 176.03436139 320.75200963 198.89106583 320.30078125 221.75390625 C320.25832114 224.0633526 320.21625557 226.37280622 320.17454529 228.68226624 C320.0869666 233.49963305 319.99731803 238.31695398 319.90576172 243.13424683 C319.66388586 255.87318755 319.43581605 268.61238117 319.20703125 281.3515625 C319.1842725 282.61212778 319.16151375 283.87269306 319.13806534 285.17145729 C318.76431733 305.91493136 318.46765783 326.65827507 318.22853851 347.40367889 C317.72535897 390.99842354 316.71479488 434.58250857 315.703125 478.16796875 C290.1980878 478.2942249 264.72806906 478.02216458 239.23150635 477.37060547 C229.51146783 477.12271699 219.79093586 476.89549705 210.0703125 476.671875 C209.08351376 476.64911625 208.09671501 476.6263575 207.08001328 476.60290909 C187.80499373 476.16203133 168.53028585 475.89893489 149.25151825 475.6939888 C28.77795179 474.4004603 28.77795179 474.4004603 -11.796875 471.73046875 C-12.66193665 471.67497864 -13.52699829 471.61948853 -14.41827393 471.56231689 C-23.14679201 470.98190119 -31.77533504 470.04888646 -40.421875 468.71484375 C-41.18600708 468.5973024 -41.95013916 468.47976105 -42.73742676 468.35865784 C-59.30560327 465.64978599 -76.55174679 459.78165838 -87.01171875 445.890625 C-105.00820533 417.63659899 -101.65337068 379.21029869 -101.55442047 346.99050522 C-101.54673906 344.24437014 -101.54269197 341.49824945 -101.53948975 338.75210571 C-101.44854759 271.85183138 -100.08901532 204.93749541 -98.3552475 138.06113052 C-98.29840708 135.85250032 -98.24329151 133.64383295 -98.1885376 131.43515015 C-97.81946571 116.72301288 -97.25380554 102.03471078 -96.3203125 87.34765625 C-96.24039062 86.07846344 -96.16046875 84.80927063 -96.078125 83.50161743 C-95.41288716 73.60628756 -94.32618054 63.87897263 -92.296875 54.16796875 C-92.16055664 53.50458496 -92.02423828 52.84120117 -91.88378906 52.15771484 C-88.60950706 36.84118322 -82.46655579 22.4977305 -69.171875 13.48046875 C-48.51130585 1.22891831 -23.49198636 0.02405858 0 0 Z " fill="#27D433" transform="translate(368.296875,751.83203125)"/>
<path d="M0 0 C45.510489 -0.29830302 90.99572927 0.1477796 136.5 0.9375 C139.06561274 0.98150919 141.63122554 1.02551556 144.19683838 1.06951904 C167.38149148 1.46980824 190.5636199 1.8828305 213.74077415 2.60351562 C229.43918866 3.08760905 245.1384544 3.23816407 260.84301758 3.38870239 C289.90445565 3.67030582 318.95012188 4.19087749 348 5.0625 C348.77090092 5.08562634 349.54180183 5.10875267 350.33606339 5.1325798 C359.55774556 5.41026478 368.77905017 5.69889828 378 6 C378.02611964 10.39452861 378.0434683 14.78900831 378.05493164 19.18359375 C378.05974325 20.65625801 378.06637229 22.1289183 378.07543945 23.6015625 C378.14127181 34.63041825 377.92217563 45.6458953 377.62104797 56.6698246 C377.1065008 75.55537107 376.78893446 94.44137351 376.53515625 113.33203125 C376.51600034 114.75107321 376.49684356 116.17011516 376.47768593 117.5891571 C376.38882185 124.18710005 376.30115748 130.78505849 376.21416587 137.38302636 C375.99784021 153.78023003 375.77016764 170.17727256 375.53515625 186.57421875 C375.51850001 187.73668625 375.51850001 187.73668625 375.50150728 188.92263794 C375.11264838 215.99268788 374.62791728 243.05932144 374 270.125 C373.97973629 270.99869484 373.95947258 271.87238968 373.93859482 272.77256012 C373.7759873 279.76671732 373.61205953 286.76084408 373.44603157 293.75492096 C372.88763886 317.28002976 372.41719809 340.80696155 371.94268799 364.33388519 C371.85343417 368.75598323 371.76379222 373.17807335 371.67414665 377.60016346 C371.44846154 388.73342284 371.22376676 399.86670191 371 411 C364.73563201 411.01260744 358.47127181 411.02154802 352.20689392 411.02746582 C350.0874875 411.02993963 347.96808189 411.03331946 345.84867859 411.03771973 C324.88728808 411.08006534 303.9506137 410.63728103 283 410 C283.00785522 411.55219238 283.00785522 411.55219238 283.01586914 413.13574219 C283.11415903 434.45533101 282.93834669 455.69799228 282 477 C245.96955076 477.17749438 209.95387082 476.70934017 173.92883015 476.16577756 C167.72258748 476.07248729 161.51628042 475.98425094 155.30994797 475.89716727 C149.2076627 475.81140212 143.10542177 475.7228747 137.00320816 475.63215441 C133.40773594 475.57870644 129.81225786 475.52611868 126.21673584 475.4761219 C110.45906577 475.25569006 94.73514334 474.89282193 79 474 C78.97563195 468.97680206 78.95676011 463.953664 78.94506836 458.93041992 C78.94017287 457.23705383 78.93345966 455.54369159 78.92456055 453.8503418 C78.84301744 437.88228311 79.37662415 421.95354036 80 406 C79.32302063 406.00222061 78.64604126 406.00444122 77.94854736 406.00672913 C71.42330569 406.02715247 64.89807351 406.04218094 58.37280655 406.05181217 C55.02179271 406.05693076 51.67082665 406.06440683 48.31982422 406.07543945 C44.4267512 406.08791255 40.53371471 406.09331866 36.640625 406.09765625 C35.49458801 406.10281754 34.34855103 406.10797882 33.16778564 406.11329651 C24.25651794 406.11386734 15.3673501 405.82234573 6.46282959 405.49290466 C5.16613783 405.44572155 3.86944607 405.39853843 2.53346062 405.34992552 C-0.64439291 405.23416591 -3.82221043 405.11750017 -7 405 C-7.14019947 360.92927235 -6.88606847 316.88610011 -6.06404496 272.8229555 C-5.92236273 265.21517504 -5.7881468 257.6072665 -5.65399467 249.99935017 C-5.41389991 236.39473801 -5.1681749 222.79023418 -4.91870117 209.18579102 C-4.67939118 196.13507325 -4.44349913 183.08430012 -4.21166992 170.03344727 C-4.19730035 169.22455383 -4.18293077 168.41566039 -4.16812576 167.58225503 C-4.11028216 164.32565017 -4.05244771 161.06904514 -3.99462876 157.81243984 C-3.74243666 143.61284173 -3.48745744 129.41329346 -3.23210844 115.21375182 C-3.19170608 112.96590055 -3.15136506 110.71804818 -3.1110394 108.47019553 C-2.75527692 88.64651379 -2.39125766 68.82301943 -2 49 C-1.97796304 47.88101208 -1.95592608 46.76202416 -1.93322134 45.60912752 C-1.81127557 39.46129761 -1.68401415 33.31362205 -1.54777896 27.16609156 C-1.50864049 25.38059822 -1.47083776 23.59507498 -1.43451989 21.80952203 C-1.38533097 19.41386034 -1.33074452 17.01838452 -1.27452087 14.62287903 C-1.24544616 13.30698697 -1.21637144 11.99109491 -1.18641567 10.63532734 C-1.00080466 7.01569179 -0.5708726 3.5748168 0 0 Z " fill="#27D433" transform="translate(1355,769)"/>
<path d="M0 0 C35.86264004 -0.13224609 71.69789875 0.15805036 107.55340576 0.86883545 C112.27082114 0.96114394 116.98832354 1.04845281 121.70583534 1.13567162 C148.80738248 1.63736896 175.90465044 2.23236521 203 3 C203.08329279 23.73530078 202.88176485 44.45219338 202.45988631 65.18302035 C202.38038914 69.12807477 202.30473508 73.07320314 202.22871399 77.01832581 C202.09813018 83.77573748 201.96582003 90.53311313 201.83224487 97.29046631 C201.47741211 115.25467997 201.13415238 133.21911633 200.79296875 151.18359375 C200.76710328 152.54311362 200.76710328 152.54311362 200.74071527 153.93009853 C200.25668143 179.38113638 199.80796726 204.83237817 199.42578125 230.28515625 C199.41517788 230.99101624 199.4045745 231.69687623 199.39364982 232.42412591 C199.24899458 242.06943109 199.10760909 251.71478346 198.96690798 261.360147 C198.36983644 302.26780033 197.64485565 343.16857522 196.68383789 384.06933594 C196.6028936 387.517575 196.52208663 390.96581725 196.44140625 394.4140625 C196.42197527 395.2428038 196.40254429 396.0715451 196.38252449 396.92539978 C195.96462307 414.82393373 195.6509682 432.72376736 195.375 450.625 C195.36462078 451.29801651 195.35424156 451.97103302 195.34354782 452.66444397 C195.22401977 460.44289134 195.10904137 468.22139861 195 476 C157.96793847 476.34298718 120.96216918 475.76387493 83.9375 475.0625 C82.1912458 475.029678 82.1912458 475.029678 80.40971375 474.99619293 C50.93675048 474.44197989 21.46720622 473.80589328 -8 473 C-8.00615578 471.11017647 -8.00615578 471.11017647 -8.01243591 469.18217468 C-8.01508737 468.37164296 -8.01773882 467.56111124 -8.02047062 466.72601795 C-8.02622459 464.9525089 -8.03188649 463.17899955 -8.03745937 461.40548992 C-8.04887449 457.80128679 -8.06065897 454.19710663 -8.07791138 450.59292603 C-8.13210315 439.18888452 -7.96557179 427.80083135 -7.62460136 416.40200043 C-7.07698311 398.09467928 -6.76346818 379.78592681 -6.5 361.47265625 C-6.48975005 360.76366031 -6.4795001 360.05466437 -6.46893954 359.3241837 C-6.31952552 348.98618573 -6.17484905 338.64812347 -6.03125 328.31004333 C-5.85704354 315.78087325 -5.68026638 303.25174063 -5.5 290.72265625 C-5.4896875 290.00390579 -5.479375 289.28515534 -5.46875 288.54462457 C-5.19744865 269.6636286 -4.87411031 250.7850106 -4.4375 231.90702438 C-3.85550055 206.68599454 -3.48431091 181.46141551 -3.09375 156.23682886 C-2.59400624 123.96216254 -2.09204284 91.68749411 -1.53627014 59.41373634 C-1.49462882 56.98990365 -1.4533743 54.56606426 -1.41255188 52.14221764 C-1.11882193 34.75274681 -0.6763436 17.37872248 0 0 Z " fill="#27D433" transform="translate(1138,765)"/>
<path d="M0 0 C1.41623216 -0.05447047 2.83308191 -0.09300508 4.25 -0.125 C5.03890625 -0.14820313 5.8278125 -0.17140625 6.640625 -0.1953125 C9.24614317 0.02037609 10.79986977 0.6078822 13 2 C14.44094317 4.88188635 14.1298514 7.36552974 14.1328125 10.5859375 C14.13413177 11.26312332 14.13545105 11.94030914 14.1368103 12.63801575 C14.13874611 14.88372174 14.13233375 17.12930634 14.125 19.375 C14.12411377 20.14067291 14.12322754 20.90634583 14.12231445 21.69522095 C14.098334 39.47281021 13.58490926 57.23338128 13 75 C8.38 75 3.76 75 -1 75 C-1.06665171 57.80478499 -0.87737583 40.62836226 -0.5 23.4375 C-0.45158335 21.14258317 -0.40340541 18.84766128 -0.35546875 16.55273438 C-0.23971213 11.0350954 -0.12108138 5.51752457 0 0 Z " fill="#010902" transform="translate(906,855)"/>
</svg>
